<?xml version="1.0" encoding="UTF-8" standalone="no"?>
<svg width="149px" height="67px" viewBox="0 0 149 67" version="1.1" xmlns="http://www.w3.org/2000/svg" xmlns:xlink="http://www.w3.org/1999/xlink">
    <!-- Generator: Sketch 39.1 (31720) - http://www.bohemiancoding.com/sketch -->
    <title>dreams-logo-updated</title>
    <desc>Created with Sketch.</desc>
    <defs></defs>
    <g id="Page-1" stroke="none" stroke-width="1" fill="none" fill-rule="evenodd">
        <g id="dreams-logo-updated">
            <g id="Layer_1">
                <path d="M18.0972925,0.15520834 C16.8401049,0.15520834 0.620833362,0 0.620833362,0 L0.620833362,1.84697925 C0.620833362,1.84697925 2.94895847,1.66072924 3.63187517,2.0953126 C4.31479186,2.52989595 5.13739607,3.10416681 5.13739607,4.48552104 L5.13739607,26.090522 C5.13739607,26.090522 4.82697939,27.2856262 4.00437518,27.7822929 C3.18177098,28.2789596 2.25052094,28.341043 1.73833341,28.4031263 C1.24166672,28.4652096 0.853645872,28.4031263 0.853645872,28.4031263 L0.853645872,30.1569805 L21.2169801,30.1569805 C21.2169801,30.1569805 35.4185433,29.5361472 35.4185433,15.3966674 C35.4340641,1.28822923 19.35448,0.15520834 18.0972925,0.15520834 L18.0972925,0.15520834 Z M21.3877093,26.5871887 C20.6271884,26.9596887 17.8334383,28.1082304 15.1793757,27.5184388 C13.3168756,27.0993762 12.3080214,24.4763553 12.3080214,24.4763553 L12.3080214,3.33697932 C12.4942714,2.57645845 13.8290631,2.57645845 13.8290631,2.57645845 C13.8290631,2.57645845 18.7802092,2.60750012 21.4808343,4.11302102 C24.1814594,5.61854192 28.713543,8.52093789 28.5583346,15.6760424 C28.4496888,21.7757302 23.3278136,25.6404178 21.3877093,26.5871887 L21.3877093,26.5871887 Z" id="Shape" fill="#3A356D"></path>
                <path d="M43.8308353,9.99541712 C43.8308353,9.99541712 38.2433351,11.2681255 37.7001059,11.4543755 C37.1568767,11.6406255 36.753335,12.5873964 37.3431267,12.9909381 C37.9329184,13.3944798 38.3830226,13.4876048 38.3830226,14.310209 L38.3830226,26.8355221 C38.3830226,26.8355221 38.3830226,27.8754179 37.8397934,28.1547929 C37.2965642,28.434168 35.7134391,28.6980221 35.7134391,28.6980221 L35.7134391,29.9707305 L47.6489605,29.9707305 L47.6489605,28.6048971 C47.6489605,28.6048971 45.5691687,28.5117721 45.2897937,28.2013555 C45.0104187,27.8909388 44.5603145,27.9219804 44.5603145,25.1127095 L44.5603145,17.1350008 C44.5603145,17.1350008 45.2432312,13.8756256 47.1522938,13.8756256 C49.0613564,13.8756256 48.2853147,15.055209 49.3717731,15.7846882 C50.4582315,16.5141674 52.5069816,16.1416674 53.0036482,15.148334 C53.5003149,14.1550006 54.2763566,11.2991672 51.3273982,10.1195838 C51.3273982,10.1195838 50.784169,9.88677128 49.8684398,9.88677128 C48.9527106,9.88677128 47.6489605,10.476563 47.1057313,10.9266672 C46.5625021,11.3767714 44.3895854,14.1550006 44.3895854,14.1550006 L44.048127,14.496459 L44.048127,10.0730213 C44.048127,10.0419796 44.2033353,10.3523963 43.8308353,9.99541712 L43.8308353,9.99541712 Z" id="Shape" fill="#3A356D"></path>
                <path d="M144.685215,18.2059383 C141.875944,17.2591675 137.856048,16.6072924 137.654277,14.217084 C137.51459,12.6339589 139.423652,11.9510422 140.742923,11.9044797 C141.969069,11.9510422 143.28834,12.4477089 144.235111,13.7669798 C145.181882,15.0862507 145.600944,16.0330216 145.600944,16.0330216 L146.82709,16.0330216 L146.82709,10.3989588 L145.461257,10.3989588 C145.461257,10.3989588 145.507819,11.2991672 145.368132,11.4854172 C145.228444,11.6716672 144.96459,11.8423964 144.638652,11.5319797 C144.312715,11.221563 143.226257,9.85572962 140.416986,9.85572962 C139.734069,9.85572962 135.931465,9.94885462 134.239694,12.1683339 C132.563444,14.3878132 132.563444,15.5673965 132.563444,16.5296883 C132.563444,17.4764591 132.796256,20.3788551 136.102194,21.7446885 C139.408131,23.1105219 141.953548,23.6071886 142.636465,24.1038553 C143.319382,24.600522 143.676361,25.2834387 143.629798,25.9197928 C143.583236,26.556147 142.807194,28.5893763 140.587715,28.6359388 C138.368235,28.6825013 136.645423,27.6891679 135.869381,26.6337512 C135.093339,25.5938553 134.332819,23.6847927 134.332819,23.6847927 L133.013548,23.6847927 L133.013548,26.8665637 C133.013548,26.8665637 132.998027,27.9375013 131.958131,28.341043 C131.259693,28.620418 129.567923,28.7756263 129.14886,27.9685429 C128.745318,27.1459387 128.745318,26.556147 128.745318,26.556147 L128.745318,14.5740632 C128.745318,14.5740632 128.062402,9.85572962 122.754276,9.85572962 C117.446151,9.85572962 115.925109,14.123959 115.925109,14.123959 C115.925109,14.123959 114.885214,9.90229212 109.934068,9.90229212 C104.982921,9.90229212 103.306671,14.123959 103.306671,14.123959 L103.306671,9.80916711 C103.306671,9.80916711 98.6814628,10.6783338 96.6792752,11.2991672 C94.8788585,11.873438 95.1427127,12.6650006 95.6393794,13.2082298 C96.136046,13.751459 97.5018794,14.5275007 97.5018794,15.2569799 C97.5018794,15.9864591 97.4087544,26.4164595 97.4087544,26.4164595 C97.4087544,26.4164595 97.0983378,27.7822929 96.5085461,28.2323971 C96.0274002,28.6048971 94.4287543,28.9618763 93.6061501,28.8221888 C92.7835459,28.6825013 90.9365666,27.8288554 90.9365666,26.9131262 L90.9365666,13.9842715 C90.9365666,13.9842715 90.6571916,9.90229212 82.7726079,9.90229212 C74.8880242,9.90229212 74.1119825,13.7204173 74.1119825,14.5740632 C74.1119825,15.4432299 74.4689617,17.2902091 76.9212535,17.2902091 C79.3735453,17.2902091 79.7305245,13.844584 79.963337,13.5186464 C80.1961495,13.2082298 80.6462537,11.9355214 82.5553163,11.9355214 C84.4643788,11.9355214 84.8679205,13.565209 84.8679205,14.4809382 C84.8679205,15.3966674 84.9610455,16.2503132 84.635108,16.7469799 C84.3246913,17.2436466 78.4578161,18.9198967 75.3381284,21.325626 C72.20292,23.7313552 71.2095866,25.6869803 69.673024,26.5871887 C68.1364614,27.4873971 66.491253,28.1237513 64.4580238,27.7667721 C62.4247945,27.4097929 60.4691694,25.0971886 60.2363569,23.4985427 C60.0035444,21.9154177 60.0656277,19.8821884 60.0656277,19.8821884 C60.0656277,19.8821884 65.4979196,19.9132301 66.7240655,19.8201051 C67.9502114,19.7269801 72.3426075,20.1305217 72.3426075,16.9642716 C72.3426075,13.7980215 70.5732324,9.74708378 62.7196904,9.93333379 C62.7196904,9.93333379 52.9260441,10.8801047 52.9260441,20.1460426 C52.9260441,29.4119805 61.3693778,30.9485431 63.1387529,30.9485431 C64.908128,30.9485431 67.5001072,30.7157306 70.3559407,28.5893763 C72.4978158,26.9907304 73.2117742,25.7335428 73.2117742,25.7335428 C73.2117742,25.7335428 73.1652117,30.6846889 78.3802119,30.6846889 C78.3802119,30.6846889 79.5597953,31.0416681 81.9189621,29.7844805 C84.2781288,28.5117721 84.8679205,27.5650013 84.8679205,27.5650013 C84.8679205,27.5650013 84.9610455,29.1946888 86.5441706,29.8776055 C88.1272957,30.5605222 90.9831291,30.5605222 90.9831291,30.5605222 L94.4753168,30.2501055 L105.991776,30.2501055 L105.991776,28.7601055 C105.991776,28.7601055 103.492921,29.0705222 103.492921,26.4009387 L103.492921,16.5607299 C103.492921,16.5607299 105.541671,13.0375006 107.264484,13.0375006 C108.987297,13.0375006 110.260005,14.8534382 110.260005,15.707084 L110.260005,26.6803137 C110.260005,26.6803137 110.260005,27.6270846 109.437401,28.1392721 C108.614797,28.6359388 107.668026,28.8221888 107.668026,28.8221888 L107.668026,30.2811472 L118.780943,30.2811472 L118.780943,28.6980221 C118.780943,28.6980221 117.05813,28.6048971 116.654589,27.6581263 C116.251047,26.7113554 116.157922,26.2922929 116.157922,25.438647 L116.157922,17.3212508 C116.157922,17.3212508 117.290943,12.9598964 120.053651,12.9598964 C122.81636,12.9598964 122.909485,15.8622924 122.909485,16.1416674 L122.909485,27.0372929 C122.909485,27.0372929 122.81636,27.8133346 122.086881,28.1703138 C121.357401,28.527293 120.41063,28.7601055 120.41063,28.7601055 L120.41063,30.2501055 L132.206464,30.2501055 C132.206464,30.2501055 133.541256,30.2656264 134.208652,29.2102097 C134.689798,28.434168 134.751881,28.4807305 134.751881,28.4807305 C134.751881,28.4807305 136.288444,30.8398972 141.193027,30.8398972 C146.097611,30.8398972 149.000007,27.2235429 149.000007,24.3677094 C149.000007,21.511876 147.510007,19.1527092 144.685215,18.2059383 L144.685215,18.2059383 Z M63.3870862,12.1217714 C66.6154197,12.1217714 67.2052114,15.2569799 67.2052114,15.8002091 C67.2052114,16.3434382 67.5621906,16.9797924 66.9258364,17.3367716 C66.2894822,17.6937508 63.3870862,17.7868758 62.6110445,17.7403133 C61.8350028,17.6937508 59.9414611,17.6937508 59.9414611,17.6937508 C59.9414611,17.6937508 59.5844819,12.1217714 63.3870862,12.1217714 L63.3870862,12.1217714 Z M84.8989622,25.1903136 C84.8523997,25.6404178 84.1229205,26.2302095 83.5331288,26.6803137 C82.9433371,27.1304179 82.2604204,27.3166679 81.6706287,27.1304179 C81.080837,26.9441679 80.242712,26.4475012 80.0409411,25.0506261 C79.8081286,23.5606261 79.9478161,22.9242719 80.6307328,21.8688552 C81.5154204,20.5185426 84.8058372,19.1992717 84.8058372,19.1992717 C84.8058372,19.1992717 84.9455247,24.7402095 84.8989622,25.1903136 L84.8989622,25.1903136 Z" id="Shape" fill="#3A356D"></path>
                <path d="M0.015520834,38.8020851 C0.015520834,38.8020851 11.873438,33.9595849 31.7090639,33.6026057 C51.5446898,33.2456265 71.8769824,36.753335 78.6440661,37.7156267 C85.4266706,38.6779184 98.0606295,39.7798976 103.260109,39.7954185 C112.820943,39.8264601 125.222089,39.190106 132.563444,38.1657309 C136.58334,37.6069809 145.89584,35.4185433 147.354798,35.0460433 C148.813757,34.6890641 149.046569,35.4030224 147.711778,36.1325016 C146.376986,36.8619808 134.286256,41.331981 126.54136,42.4184394 C118.796464,43.5048978 105.370942,45.1966687 96.2912544,44.8396895 C87.2115665,44.4827104 86.7304206,44.3585437 86.7304206,44.3585437 C86.7304206,44.3585437 63.8837529,41.9372936 59.4137527,40.9750019 C54.9437525,40.0127102 37.7001059,38.4295851 32.3143765,37.59146 C30.7778139,37.3431267 26.6027095,37.0792725 26.6027095,37.0792725 L25.1437511,37.1723975 C25.1437511,37.1723975 22.8777094,36.8930225 11.6251047,37.7156267 C7.86906286,37.9794809 -0.356979183,40.7421894 0.015520834,38.8020851 L0.015520834,38.8020851 Z" id="Shape" fill="#EE78A5"></path>
                <g id="Group" transform="translate(13.347917, 52.926044)" fill="#332F69">
                    <path d="M7.04645865,7.18614616 C6.76708364,8.67614623 5.49437525,9.87125045 3.86468768,9.87125045 L0.0620833362,9.87125045 L0.124166672,9.5297921 C1.11750005,9.5297921 1.33479173,9.25041709 1.62968757,7.66729202 L2.54541678,2.46781261 C2.84031263,0.869166706 2.70062512,0.620833362 1.70729174,0.620833362 L1.75385425,0.279375013 L5.21500024,0.279375013 C6.68947947,0.279375013 7.46552117,1.35031256 7.23270866,2.66958345 C7.09302116,3.50770849 6.47218779,4.22166686 5.82031276,4.65625021 C6.70500031,5.04427106 7.26375033,6.03760444 7.04645865,7.18614616 L7.04645865,7.18614616 Z M5.91343777,7.18614616 C6.11520861,6.02208361 5.54093775,5.0597919 4.50104187,5.0597919 L3.10416681,5.0597919 L2.68510429,7.41895867 C2.39020844,9.01760458 2.51437511,9.26593792 3.50770849,9.26593792 L3.740521,9.26593792 C4.79593772,9.28145876 5.71166693,8.33468788 5.91343777,7.18614616 L5.91343777,7.18614616 Z M3.21281265,4.4700002 L4.20614602,4.4700002 C5.1063544,4.4700002 5.9289586,3.66291683 6.11520861,2.68510429 C6.28593779,1.69177091 5.74270859,0.88468754 4.85802105,0.88468754 L3.86468768,0.88468754 L3.21281265,4.4700002 L3.21281265,4.4700002 Z" id="Shape"></path>
                    <path d="M10.0575005,9.49875043 C10.4610421,9.49875043 11.0818755,9.17281292 11.5164589,8.76927123 L11.6561464,9.09520875 C11.128438,9.68500044 10.3368755,10.1506255 9.63843794,10.1506255 C8.31916705,10.1506255 7.65177118,8.83135457 7.93114619,7.21718783 C8.25708371,5.52541692 9.56083377,4.29927103 10.6783338,4.29927103 C11.5319797,4.29927103 11.9820839,4.92010439 11.8423964,5.68062526 C11.7027089,6.5187503 10.7714588,7.51208368 8.78479207,7.93114619 C8.78479207,8.87791707 9.17281292,9.49875043 10.0575005,9.49875043 L10.0575005,9.49875043 Z M11.0508338,5.66510442 C11.1129172,5.24604191 10.9732297,4.92010439 10.569688,4.92010439 C9.84020878,4.92010439 9.12625042,5.7892711 8.87791707,7.21718783 C8.86239624,7.31031283 8.8468754,7.387917 8.83135457,7.46552117 C10.2282296,7.13958366 10.9266672,6.30145862 11.0508338,5.66510442 L11.0508338,5.66510442 Z" id="Shape"></path>
                    <path d="M14.217084,10.1506255 C12.9133339,10.1506255 12.3080214,8.95552124 12.6029172,7.35687533 C12.9443756,5.46333358 14.2946882,4.28375019 15.2569799,4.28375019 C16.3123966,4.28375019 16.5762508,4.95114606 16.5141674,5.33916691 C16.4676049,5.58750025 16.3279174,5.86687527 15.9864591,5.86687527 C15.334584,5.86687527 15.8157299,4.79593772 15.1638549,4.79593772 C14.6206257,4.79593772 13.8290631,5.64958359 13.5186464,7.35687533 C13.3013548,8.64510456 13.6428131,9.51427127 14.6361465,9.51427127 C15.0241674,9.51427127 15.5673965,9.28145876 16.0485424,8.78479207 L16.2037507,9.11072958 C15.6294799,9.74708378 14.9000007,10.1506255 14.217084,10.1506255 L14.217084,10.1506255 Z" id="Shape"></path>
                    <path d="M18.9354175,10.1506255 C17.6006258,10.1506255 16.9953133,8.83135457 17.2746883,7.21718783 C17.585105,5.60302109 18.888855,4.29927103 20.2236468,4.29927103 C20.6582301,4.29927103 20.9065635,4.3768752 21.2635426,4.56312521 L22.1482302,4.56312521 L21.4032301,8.86239624 C21.3411468,9.23489625 21.3566676,9.51427127 21.5739593,9.51427127 C21.7446885,9.51427127 22.0861468,9.28145876 22.2103135,9.15729208 L22.2103135,9.5297921 C21.884376,9.85572962 21.4497926,10.0885421 21.1548968,10.0885421 C20.7047926,10.0885421 20.4875009,9.79364628 20.4564593,9.35906293 C20.0529176,9.80916711 19.4320842,10.1506255 18.9354175,10.1506255 L18.9354175,10.1506255 Z M21.139376,5.18395857 C20.9686468,5.01322939 20.6582301,4.78041688 20.1460426,4.78041688 C19.1992717,4.78041688 18.5318758,5.91343777 18.3145842,7.18614616 C18.0817717,8.45885455 18.3145842,9.4832296 19.2303134,9.4832296 C19.8356259,9.4832296 20.4875009,8.86239624 20.6582301,7.99322953 L21.139376,5.18395857 L21.139376,5.18395857 Z" id="Shape"></path>
                    <path d="M27.2545846,10.0730213 C26.6958345,10.0730213 26.4785429,9.59187544 26.5716679,8.95552124 L26.6027095,8.83135457 C26.1370845,9.59187544 25.438647,10.1351046 24.7402095,10.1351046 C23.6692719,10.1351046 23.3588552,9.09520875 23.6071886,7.74489619 L24.0107303,5.57197942 C24.0728136,5.18395857 24.0417719,4.90458356 23.8400011,4.90458356 C23.6537511,4.90458356 23.3122927,5.13739607 23.2036469,5.27708357 L23.2036469,4.88906272 C23.5140636,4.56312521 23.9331261,4.34583353 24.2435428,4.34583353 C24.8022928,4.34583353 25.0351053,4.81145855 24.9264595,5.44781275 L24.5229178,7.66729202 C24.3366678,8.7071879 24.4453136,9.37458376 25.2058345,9.37458376 C25.7335428,9.37458376 26.649272,8.59854206 26.9441679,6.92229198 L27.3632304,4.54760437 L28.2634388,4.54760437 L27.5184388,8.8468754 C27.4563554,9.21937542 27.4718763,9.49875043 27.6891679,9.49875043 C27.8598971,9.49875043 28.2013555,9.26593792 28.3255221,9.14177125 L28.3255221,9.51427127 C27.9840638,9.84020878 27.5339596,10.0730213 27.2545846,10.0730213 L27.2545846,10.0730213 Z" id="Shape"></path>
                    <path d="M30.2656264,10.1506255 C29.272293,10.1506255 28.806668,9.49875043 28.8842721,9.06416708 C28.9308347,8.83135457 29.1015638,8.69166706 29.3343763,8.69166706 C29.924168,8.69166706 29.365418,9.63843794 30.4518764,9.63843794 C30.9175014,9.63843794 31.2744806,9.21937542 31.3210431,8.87791707 C31.3986473,8.44333372 31.0882306,7.96218786 30.8554181,7.76041702 L30.2811472,7.20166699 C29.9086472,6.84468781 29.6603138,6.25489612 29.7534389,5.74270859 C29.8620847,5.02875023 30.4363556,4.28375019 31.4917723,4.28375019 C32.360939,4.28375019 32.6247932,4.85802105 32.5782306,5.23052107 C32.547189,5.41677108 32.4075015,5.55645859 32.2212515,5.55645859 C31.6625014,5.55645859 32.1436473,4.71833355 31.3055223,4.71833355 C30.9485431,4.71833355 30.5915639,4.99770856 30.5139597,5.41677108 C30.4363556,5.8358336 30.6070847,6.08416694 30.9951056,6.47218779 L31.5693764,7.01541699 C31.988439,7.41895867 32.1902098,8.00875036 32.0970848,8.50541705 C31.9108348,9.59187544 31.0416681,10.1506255 30.2656264,10.1506255 L30.2656264,10.1506255 Z" id="Shape"></path>
                    <path d="M35.2788558,9.49875043 C35.6823975,9.49875043 36.3032308,9.17281292 36.7378142,8.76927123 L36.8775017,9.09520875 C36.3497933,9.68500044 35.5582308,10.1506255 34.8597933,10.1506255 C33.5405224,10.1506255 32.8731265,8.83135457 33.1525015,7.21718783 C33.478439,5.52541692 34.7821891,4.29927103 35.8996891,4.29927103 C36.753335,4.29927103 37.2034392,4.92010439 37.0637517,5.68062526 C36.9240642,6.5187503 35.9928141,7.51208368 34.0061474,7.93114619 C33.9906265,8.87791707 34.3941682,9.49875043 35.2788558,9.49875043 L35.2788558,9.49875043 Z M36.2566683,5.66510442 C36.3187517,5.24604191 36.1790641,4.92010439 35.7755225,4.92010439 C35.0460433,4.92010439 34.3320849,5.7892711 34.0837516,7.21718783 C34.0682307,7.31031283 34.0527099,7.387917 34.037189,7.46552117 C35.4495849,7.13958366 36.1325016,6.30145862 36.2566683,5.66510442 L36.2566683,5.66510442 Z" id="Shape"></path>
                    <path d="M44.4671895,6.62739613 C44.793127,4.88906272 43.8929187,4.87354189 43.9705228,4.4700002 C43.9860437,4.28375019 44.1878145,4.15958352 44.3740645,4.15958352 C44.793127,4.15958352 45.3518771,4.76489605 45.0414604,6.36354196 C44.3740645,10.2437505 40.2610435,14.1084381 37.6535434,14.1084381 C36.7067725,14.1084381 36.380835,13.658334 36.4429183,13.2547923 C36.47396,13.0530214 36.7378142,12.7270839 36.939585,12.7270839 C37.2655225,12.7270839 37.1568767,13.4100006 38.0881267,13.4100006 C39.2521893,13.4100006 40.8042727,12.3701047 42.0614602,10.942188 C42.6978144,6.64291697 42.0459394,4.85802105 41.3475019,4.85802105 C41.1302102,4.85802105 40.7266685,5.1063544 40.6180227,5.24604191 L40.6180227,4.85802105 C40.9284394,4.53208354 41.3475019,4.31479186 41.7820852,4.31479186 C42.9927103,4.31479186 43.5048978,6.45666696 43.0703145,9.70052127 C43.7532312,8.7071879 44.2964603,7.62072951 44.4671895,6.62739613 L44.4671895,6.62739613 Z" id="Shape"></path>
                    <path d="M47.8041688,10.1506255 C46.4693771,10.1506255 45.6157312,8.83135457 45.8795854,7.21718783 C46.1900021,5.60302109 47.4937522,4.29927103 48.8285439,4.29927103 C50.1478148,4.29927103 51.0014607,5.60302109 50.7220856,7.21718783 C50.4427106,8.81583373 49.1234397,10.1506255 47.8041688,10.1506255 L47.8041688,10.1506255 Z M48.7509397,4.78041688 C47.788648,4.78041688 47.1522938,5.86687527 46.9194813,7.21718783 C46.6866688,8.55197956 46.9194813,9.66947961 47.881773,9.66947961 C48.8440647,9.66947961 49.4648981,8.56750039 49.6977106,7.21718783 C49.9460439,5.86687527 49.6977106,4.78041688 48.7509397,4.78041688 L48.7509397,4.78041688 Z" id="Shape"></path>
                    <path d="M55.1920858,10.0730213 C54.6333358,10.0730213 54.4160441,9.59187544 54.5091691,8.95552124 L54.5402108,8.83135457 C54.0745858,9.59187544 53.3761483,10.1351046 52.6777107,10.1351046 C51.6067732,10.1351046 51.2963565,9.09520875 51.5446898,7.74489619 L51.9482315,5.57197942 C52.0103149,5.18395857 51.9792732,4.90458356 51.7775024,4.90458356 C51.5912523,4.90458356 51.249794,5.13739607 51.1411482,5.27708357 L51.1411482,4.88906272 C51.4515648,4.56312521 51.8706274,4.34583353 52.181044,4.34583353 C52.7397941,4.34583353 52.9726066,4.81145855 52.8639607,5.44781275 L52.4604191,7.66729202 C52.274169,8.7071879 52.3828149,9.37458376 53.1433358,9.37458376 C53.6710441,9.37458376 54.5867733,8.59854206 54.8816692,6.92229198 L55.3007317,4.54760437 L56.2009401,4.54760437 L55.45594,8.8468754 C55.3938567,9.21937542 55.4093775,9.49875043 55.6266692,9.49875043 C55.7973984,9.49875043 56.1388567,9.26593792 56.2630234,9.14177125 L56.2630234,9.51427127 C55.9370859,9.84020878 55.4869817,10.0730213 55.1920858,10.0730213 L55.1920858,10.0730213 Z" id="Shape"></path>
                    <path d="M60.4226069,4.28375019 C61.1365653,4.28375019 61.3072945,4.87354189 61.2141695,5.29260441 C61.1831278,5.49437525 61.0123986,5.8358336 60.5778153,5.8358336 C60.2829194,5.8358336 60.0966694,5.60302109 60.1432319,5.32364608 C60.1742736,5.1063544 60.1587527,4.98218773 60.0035444,4.98218773 C59.5379194,4.98218773 58.7929193,6.05312528 58.3738568,8.31916705 L58.1100026,9.87125045 L57.2563568,9.87125045 L58.0168776,5.57197942 C58.078961,5.18395857 58.0479193,4.90458356 57.8461485,4.90458356 C57.6598985,4.90458356 57.3184401,5.13739607 57.2097943,5.27708357 L57.2097943,4.88906272 C57.520211,4.56312521 57.9392735,4.34583353 58.2496902,4.34583353 C58.8084402,4.34583353 58.9791694,4.81145855 58.8705235,5.44781275 L58.7929193,5.85135443 C59.196461,4.84250022 59.8172944,4.28375019 60.4226069,4.28375019 L60.4226069,4.28375019 Z" id="Shape"></path>
                    <path d="M64.6132321,10.1506255 C63.6198987,10.1506255 63.1542737,9.49875043 63.2318779,9.06416708 C63.2784404,8.83135457 63.4491696,8.69166706 63.6819821,8.69166706 C64.2717738,8.69166706 63.7130237,9.63843794 64.7994821,9.63843794 C65.2651071,9.63843794 65.6065655,9.21937542 65.6686488,8.87791707 C65.746253,8.44333372 65.4358363,7.96218786 65.2030238,7.76041702 L64.6287529,7.20166699 C64.2562529,6.84468781 64.0079196,6.25489612 64.1010446,5.74270859 C64.2096904,5.02875023 64.7839613,4.28375019 65.839378,4.28375019 C66.7085447,4.28375019 66.9723989,4.85802105 66.9258364,5.23052107 C66.8947947,5.41677108 66.7551072,5.55645859 66.5688572,5.55645859 C66.0101072,5.55645859 66.491253,4.71833355 65.653128,4.71833355 C65.2961488,4.71833355 64.9391696,4.99770856 64.8615655,5.41677108 C64.7839613,5.8358336 64.9546905,6.08416694 65.3427113,6.47218779 L65.9169822,7.01541699 C66.3360447,7.41895867 66.5378155,8.00875036 66.4446905,8.50541705 C66.2584405,9.59187544 65.373753,10.1506255 64.6132321,10.1506255 L64.6132321,10.1506255 Z" id="Shape"></path>
                    <path d="M68.2451073,0.745000034 L68.2916698,0.403541685 L70.2007324,0 L68.6641698,8.83135457 C68.6020865,9.20385459 68.6176073,9.4832296 68.834899,9.4832296 C69.0056281,9.4832296 69.3470865,9.25041709 69.4712532,9.12625042 L69.4712532,9.49875043 C69.1453156,9.82468795 68.7107323,10.0575005 68.4158364,10.0575005 C67.8570864,10.0575005 67.6397947,9.5763546 67.7329197,8.94000041 L68.8504198,2.59197928 C69.1453156,1.02437505 69.0521906,0.745000034 68.2451073,0.745000034 L68.2451073,0.745000034 Z" id="Shape"></path>
                    <path d="M72.3581283,9.49875043 C72.76167,9.49875043 73.3825033,9.17281292 73.8170867,8.76927123 L73.9567742,9.09520875 C73.4290658,9.68500044 72.6375033,10.1506255 71.9390658,10.1506255 C70.6197949,10.1506255 69.952399,8.83135457 70.231774,7.21718783 C70.5577115,5.52541692 71.8614616,4.29927103 72.9789617,4.29927103 C73.8326075,4.29927103 74.2827117,4.92010439 74.1430242,5.68062526 C74.0033367,6.5187503 73.0720867,7.51208368 71.0854199,7.93114619 C71.0854199,8.87791707 71.4734408,9.49875043 72.3581283,9.49875043 L72.3581283,9.49875043 Z M73.3514617,5.66510442 C73.413545,5.24604191 73.2738575,4.92010439 72.8703158,4.92010439 C72.1408366,4.92010439 71.4268783,5.7892711 71.1785449,7.21718783 C71.1630241,7.31031283 71.1475032,7.387917 71.1319824,7.46552117 C72.5288575,7.13958366 73.227295,6.30145862 73.3514617,5.66510442 L73.3514617,5.66510442 Z" id="Shape"></path>
                    <path d="M77.0454202,9.49875043 C77.4489619,9.49875043 78.0697952,9.17281292 78.5043786,8.76927123 L78.6440661,9.09520875 C78.1163577,9.68500044 77.3247952,10.1506255 76.6263577,10.1506255 C75.3070868,10.1506255 74.6396909,8.83135457 74.9190659,7.21718783 C75.2450034,5.52541692 76.5487535,4.29927103 77.6662535,4.29927103 C78.5198994,4.29927103 78.9700036,4.92010439 78.8303161,5.68062526 C78.6906286,6.5187503 77.7593785,7.51208368 75.7727118,7.93114619 C75.7571909,8.87791707 76.1607326,9.49875043 77.0454202,9.49875043 L77.0454202,9.49875043 Z M78.0387536,5.66510442 C78.1008369,5.24604191 77.9611494,4.92010439 77.5576077,4.92010439 C76.8281285,4.92010439 76.1141701,5.7892711 75.8658368,7.21718783 C75.850316,7.31031283 75.8347951,7.387917 75.8192743,7.46552117 C77.2161493,7.13958366 77.899066,6.30145862 78.0387536,5.66510442 L78.0387536,5.66510442 Z" id="Shape"></path>
                    <path d="M81.5154204,1.98666676 L82.4001079,1.98666676 L81.9655246,4.54760437 C82.3690662,4.36135437 82.6329204,4.28375019 83.0675038,4.28375019 C84.4022955,4.28375019 85.2714622,5.58750025 84.9920872,7.20166699 C84.7127122,8.81583373 83.6572955,10.1351046 82.3069829,10.1351046 C81.8103162,10.1351046 81.360212,9.80916711 81.1118787,9.40562543 L80.708337,11.6716672 C80.4134412,13.2703131 80.5841703,13.5186464 81.6551079,13.5186464 L81.5930245,13.8601048 L78.1629202,13.8601048 L78.2405244,13.5186464 C79.2959411,13.5186464 79.5287536,13.2703131 79.8236495,11.6716672 L80.8480245,5.89791694 C80.4910453,6.59635447 80.1030245,7.20166699 79.6529203,7.72937535 L79.3890661,7.54312534 C80.056462,6.76708364 81.0032329,4.99770856 81.4222954,2.71614596 L81.5154204,1.98666676 L81.5154204,1.98666676 Z M82.9743788,4.79593772 C82.4621913,4.79593772 82.0741704,5.01322939 81.8413579,5.1994794 L81.360212,8.0242712 C81.2050037,8.8934379 81.6551079,9.51427127 82.2448996,9.51427127 C83.1606288,9.51427127 83.7504205,8.48989622 83.9677122,7.21718783 C84.1850038,5.9289586 83.9056288,4.79593772 82.9743788,4.79593772 L82.9743788,4.79593772 Z" id="Shape"></path>
                    <path d="M93.9010459,4.28375019 C95.018546,4.28375019 95.1427127,5.30812524 94.9099002,6.6584378 L94.5374001,8.8468754 C94.459796,9.21937542 94.4908376,9.49875043 94.6926085,9.49875043 C94.8788585,9.49875043 95.2203168,9.26593792 95.3289627,9.14177125 L95.3289627,9.51427127 C95.0030252,9.84020878 94.5839626,10.0730213 94.2890668,10.0730213 C93.7303168,10.0730213 93.4975043,9.59187544 93.6061501,8.95552124 L93.9941709,6.73604197 C94.2114626,5.55645859 94.1338585,5.02875023 93.4509418,5.02875023 C92.9387542,5.02875023 92.0540667,5.75822943 91.7746917,7.49656284 L91.3401083,9.87125045 L90.4554208,9.87125045 L90.99865,6.73604197 C91.2004208,5.55645859 91.1383375,5.02875023 90.4554208,5.02875023 C89.9277124,5.02875023 89.0585457,5.75822943 88.7791707,7.49656284 L88.3445874,9.87125045 L87.444379,9.87125045 L88.2048998,5.57197942 C88.2669832,5.18395857 88.2359415,4.90458356 88.0341707,4.90458356 C87.8479207,4.90458356 87.5064623,5.13739607 87.3978165,5.27708357 L87.3978165,4.88906272 C87.7082332,4.56312521 88.1272957,4.34583353 88.4377124,4.34583353 C88.9964624,4.34583353 89.2292749,4.81145855 89.1206291,5.44781275 L89.0895874,5.58750025 C89.4931291,4.84250022 90.2070874,4.28375019 90.8900041,4.28375019 C91.7281292,4.28375019 92.0075042,4.85802105 91.9919834,5.75822943 C92.4265667,4.85802105 93.2181292,4.28375019 93.9010459,4.28375019 L93.9010459,4.28375019 Z" id="Shape"></path>
                    <path d="M97.827817,10.1506255 C96.4930252,10.1506255 95.8877127,8.83135457 96.1670877,7.21718783 C96.4775044,5.60302109 97.7812545,4.29927103 99.131567,4.29927103 C99.5661504,4.29927103 99.8144837,4.3768752 100.171463,4.56312521 L101.05615,4.56312521 L100.31115,8.86239624 C100.249067,9.23489625 100.264588,9.51427127 100.48188,9.51427127 C100.652609,9.51427127 100.994067,9.28145876 101.118234,9.15729208 L101.118234,9.5297921 C100.792296,9.85572962 100.357713,10.0885421 100.062817,10.0885421 C99.6127129,10.0885421 99.3954212,9.79364628 99.3643795,9.35906293 C98.945317,9.80916711 98.3244836,10.1506255 97.827817,10.1506255 L97.827817,10.1506255 Z M100.031775,5.18395857 C99.8610462,5.01322939 99.5506295,4.78041688 99.038442,4.78041688 C98.0916711,4.78041688 97.4242753,5.91343777 97.2069836,7.18614616 C96.9741711,8.45885455 97.2069836,9.4832296 98.1227128,9.4832296 C98.7280253,9.4832296 99.3799004,8.86239624 99.5506295,7.99322953 L100.031775,5.18395857 L100.031775,5.18395857 Z" id="Shape"></path>
                    <path d="M103.430838,8.33468788 C103.306671,9.09520875 103.399796,9.49875043 103.787817,9.49875043 C103.989588,9.49875043 104.346567,9.34354209 104.796671,8.78479207 L104.812192,9.21937542 C104.346567,9.84020878 103.741255,10.1506255 103.384276,10.1506255 C102.670317,10.1506255 102.328859,9.59187544 102.546151,8.35020871 L103.104901,5.12187523 L102.065005,5.12187523 L102.17365,4.56312521 L103.213546,4.56312521 L103.663651,2.00218759 L104.548338,2.00218759 L104.113755,4.56312521 L105.386463,4.56312521 L105.277817,5.12187523 L104.005109,5.12187523 L103.430838,8.33468788 L103.430838,8.33468788 Z" id="Shape"></path>
                    <path d="M107.404172,8.33468788 C107.280005,9.09520875 107.37313,9.49875043 107.761151,9.49875043 C107.962922,9.49875043 108.319901,9.34354209 108.770005,8.78479207 L108.785526,9.21937542 C108.319901,9.84020878 107.714588,10.1506255 107.357609,10.1506255 C106.643651,10.1506255 106.302192,9.59187544 106.519484,8.35020871 L107.078234,5.12187523 L106.038338,5.12187523 L106.146984,4.56312521 L107.18688,4.56312521 L107.636984,2.00218759 L108.521672,2.00218759 L108.087088,4.56312521 L109.359797,4.56312521 L109.251151,5.12187523 L107.978442,5.12187523 L107.404172,8.33468788 L107.404172,8.33468788 Z" id="Shape"></path>
                    <path d="M111.967297,9.49875043 C112.370838,9.49875043 112.991672,9.17281292 113.426255,8.76927123 L113.565943,9.09520875 C113.038234,9.68500044 112.246672,10.1506255 111.548234,10.1506255 C110.228963,10.1506255 109.561567,8.83135457 109.840942,7.21718783 C110.16688,5.52541692 111.47063,4.29927103 112.58813,4.29927103 C113.441776,4.29927103 113.89188,4.92010439 113.752193,5.68062526 C113.612505,6.5187503 112.681255,7.51208368 110.694588,7.93114619 C110.694588,8.87791707 111.09813,9.49875043 111.967297,9.49875043 L111.967297,9.49875043 Z M112.96063,5.66510442 C113.022713,5.24604191 112.883026,4.92010439 112.479484,4.92010439 C111.750005,4.92010439 111.036047,5.7892711 110.787713,7.21718783 C110.772193,7.31031283 110.756672,7.387917 110.741151,7.46552117 C112.153547,7.13958366 112.836463,6.30145862 112.96063,5.66510442 L112.96063,5.66510442 Z" id="Shape"></path>
                    <path d="M117.880735,4.28375019 C118.594693,4.28375019 118.765422,4.87354189 118.672297,5.29260441 C118.641255,5.49437525 118.470526,5.8358336 118.035943,5.8358336 C117.741047,5.8358336 117.554797,5.60302109 117.60136,5.32364608 C117.632401,5.1063544 117.61688,4.98218773 117.461672,4.98218773 C116.996047,4.98218773 116.251047,6.05312528 115.831984,8.31916705 L115.56813,9.87125045 L114.714484,9.87125045 L115.475005,5.57197942 C115.537089,5.18395857 115.506047,4.90458356 115.304276,4.90458356 C115.118026,4.90458356 114.776568,5.13739607 114.667922,5.27708357 L114.667922,4.88906272 C114.978339,4.56312521 115.397401,4.34583353 115.707818,4.34583353 C116.266568,4.34583353 116.437297,4.81145855 116.328651,5.44781275 L116.251047,5.85135443 C116.654589,4.84250022 117.275422,4.28375019 117.880735,4.28375019 L117.880735,4.28375019 Z" id="Shape"></path>
                    <path d="M119.913964,10.1506255 C118.92063,10.1506255 118.455005,9.49875043 118.53261,9.06416708 C118.579172,8.83135457 118.749901,8.69166706 118.982714,8.69166706 C119.572505,8.69166706 119.013755,9.63843794 120.100214,9.63843794 C120.565839,9.63843794 120.907297,9.21937542 120.969381,8.87791707 C121.046985,8.44333372 120.736568,7.96218786 120.503755,7.76041702 L119.929485,7.20166699 C119.556985,6.84468781 119.308651,6.25489612 119.401776,5.74270859 C119.510422,5.02875023 120.084693,4.28375019 121.14011,4.28375019 C122.009276,4.28375019 122.273131,4.85802105 122.226568,5.23052107 C122.195526,5.41677108 122.055839,5.55645859 121.869589,5.55645859 C121.310839,5.55645859 121.791985,4.71833355 120.95386,4.71833355 C120.59688,4.71833355 120.239901,4.99770856 120.162297,5.41677108 C120.084693,5.8358336 120.255422,6.08416694 120.643443,6.47218779 L121.217714,7.01541699 C121.636776,7.41895867 121.838547,8.00875036 121.745422,8.50541705 C121.559172,9.59187544 120.674485,10.1506255 119.913964,10.1506255 L119.913964,10.1506255 Z" id="Shape"></path>
                </g>
            </g>
        </g>
    </g>
</svg>